<svg xmlns="http://www.w3.org/2000/svg" viewBox="0 0 100 100">
  <defs>
    <linearGradient id="bg" x1="0%" y1="0%" x2="100%" y2="100%">
      <stop offset="0%" stop-color="#F59E0B"/>
      <stop offset="100%" stop-color="#D97706"/>
    </linearGradient>
  </defs>
  <rect width="100" height="100" rx="22" fill="url(#bg)"/>
  <g fill="none" stroke="white" stroke-width="2.5" stroke-linecap="round" stroke-linejoin="round">
    <!-- Bitcoin-style symbol -->
    <circle cx="50" cy="50" r="26" stroke-width="2.5"/>
    <path d="M44 36 L56 36 Q62 36 62 42 Q62 48 56 48 L44 48" stroke-width="2.5"/>
    <path d="M44 48 L58 48 Q64 48 64 54 Q64 60 58 60 L44 60" stroke-width="2.5"/>
    <path d="M44 34 L44 62" stroke-width="2.5"/>
    <path d="M48 32 L48 36" stroke-width="2.5"/>
    <path d="M52 32 L52 36" stroke-width="2.5"/>
    <path d="M48 60 L48 64" stroke-width="2.5"/>
    <path d="M52 60 L52 64" stroke-width="2.5"/>
    <!-- Profit arrow -->
    <path d="M70 28 L78 20 L78 28" stroke-width="3" stroke="rgba(255,255,255,0.9)"/>
    <path d="M78 20 L70 20" stroke-width="3" stroke="rgba(255,255,255,0.9)"/>
  </g>
</svg>